{
	"asset":{
		"generator":"Khronos glTF Blender I/O v5.1.19",
		"version":"2.0"
	},
	"scene":0,
	"scenes":[
		{
			"name":"Scene",
			"nodes":[
				0
			]
		}
	],
	"nodes":[
		{
			"mesh":0,
			"name":"sword",
			"rotation":[
				0.7071068286895752,
				0,
				0,
				0.7071068286895752
			]
		}
	],
	"meshes":[
		{
			"name":"sword",
			"primitives":[
				{
					"attributes":{
						"POSITION":0,
						"NORMAL":1,
						"TEXCOORD_0":2
					},
					"indices":3,
					"material":0
				}
			]
		}
	],
	"materials":[
		{
			"name":"sword_material",
			"pbrMetallicRoughness":{
				"baseColorTexture":{
					"index":0
				}
			}
		}
	],
	"textures":[
		{
			"source":0
		}
	],
	"images":[
		{
			"uri":"sword2_final_cm.jpg"
		}
	],
	"accessors":[
		{
			"bufferView":0,
			"componentType":5126,
			"count":806,
			"max":[
				0.5695000290870667,
				0.5042999982833862,
				4.425000190734863
			],
			"min":[
				-1.6770999431610107,
				-0.06669999659061432,
				-3.289299964904785
			],
			"type":"VEC3"
		},
		{
			"bufferView":1,
			"componentType":5126,
			"count":806,
			"type":"VEC3"
		},
		{
			"bufferView":2,
			"componentType":5126,
			"count":806,
			"type":"VEC2"
		},
		{
			"bufferView":3,
			"componentType":5123,
			"count":1482,
			"type":"SCALAR"
		}
	],
	"bufferViews":[
		{
			"buffer":0,
			"byteLength":9672,
			"byteOffset":0,
			"target":34962
		},
		{
			"buffer":0,
			"byteLength":9672,
			"byteOffset":9672,
			"target":34962
		},
		{
			"buffer":0,
			"byteLength":6448,
			"byteOffset":19344,
			"target":34962
		},
		{
			"buffer":0,
			"byteLength":2964,
			"byteOffset":25792,
			"target":34963
		}
	],
	"buffers":[
		{
			"byteLength":28756,
			"uri":"sword.bin"
		}
	]
}
